<svg width="64" height="64" viewBox="0 0 64 64" fill="none" xmlns="http://www.w3.org/2000/svg">
  <path fill="#111" d="M0 0H64V48L48 64H0V0Z" />
  <path fill="#fff" d="M32.1502 22.97L32.3004 35.2876L26.8026 40.5751L26.7425 28.5579C26.7425 28.4177 26.8326 28.1974 27.0129 27.897C27.2132 27.5765 27.6438 27.1159 28.3047 26.515L32.1502 22.97ZM29.927 16C30.9685 16.3405 32.0801 16.701 33.2618 17.0815C34.4435 17.4621 35.5851 17.8126 36.6867 18.133C37.8083 18.4535 38.8298 18.7239 39.7511 18.9442C40.6924 19.1645 41.4335 19.2747 41.9742 19.2747C42.3348 19.2747 42.6652 19.2446 42.9657 19.1846C43.2661 19.1044 43.5665 18.9843 43.867 18.824C44.1674 18.6638 44.4878 18.4535 44.8283 18.1931C45.1688 17.9328 45.5594 17.6023 46 17.2017C44.7382 18.4635 43.6166 19.495 42.6352 20.2961C41.6538 21.0973 40.7926 21.7282 40.0515 22.1888C39.3104 22.6295 38.6695 22.9299 38.1288 23.0901C37.588 23.2504 37.1073 23.3305 36.6867 23.3305C36.1059 23.3305 35.3748 23.2403 34.4936 23.0601C33.6323 22.8598 32.691 22.6094 31.6695 22.309C30.6681 22.0086 29.6266 21.6681 28.5451 21.2876C27.4835 20.887 26.4721 20.4864 25.5107 20.0858L29.927 16ZM44.0472 35.7382C43.867 36.5594 43.5765 37.4306 43.176 38.3519C42.7954 39.2732 42.3147 40.1845 41.7339 41.0858C41.1731 41.9871 40.5222 42.8484 39.7811 43.6695C39.0601 44.4707 38.2489 45.1817 37.3476 45.8026C36.4463 46.4235 35.475 46.9142 34.4335 47.2747C33.392 47.6352 32.2904 47.8154 31.1288 47.8154C28.8054 47.8154 26.8126 47.475 25.1502 46.794C23.5079 46.113 22.1559 45.2117 21.0944 44.0901C20.0329 42.9485 19.2518 41.6567 18.7511 40.2146C18.2504 38.7725 18 37.2904 18 35.7682C18 34.3262 18.1102 33.0143 18.3305 31.8326C18.5508 30.6509 18.9313 29.4893 19.4721 28.3476C20.0129 27.186 20.7439 25.9843 21.6652 24.7425C22.6066 23.4807 23.7883 22.0386 25.2103 20.4163C24.4492 21.3977 23.8784 22.3491 23.4979 23.2704C23.1173 24.1717 22.8469 25.0629 22.6867 25.9442C22.5465 26.8054 22.4764 27.6567 22.4764 28.4979C22.4764 29.319 22.4764 30.1202 22.4764 30.9013C22.4764 34.9471 23.5079 38.0515 25.5708 40.2146C27.6538 42.3577 30.7883 43.4292 34.9742 43.4292C36.1159 43.4292 37.1874 43.2089 38.1888 42.7682C39.2103 42.3276 40.1116 41.7468 40.8927 41.0257C41.6938 40.3047 42.3648 39.4835 42.9056 38.5622C43.4464 37.6409 43.8269 36.6996 44.0472 35.7382Z" />
</svg>
