<svg version="1.0" xmlns="http://www.w3.org/2000/svg"
 width="65.000000pt" height="573.000000pt" viewBox="0 0 65.000000 573.000000"
 preserveAspectRatio="xMidYMid meet">

<g transform="translate(0.000000,573.000000) scale(0.100000,-0.100000)"
fill="currentColor" stroke="none">
<path d="M518 5725 c-23 -24 -207 -69 -325 -79 l-73 -7 0 40 0 41 -60 0 -60 0
0 -350 0 -350 60 0 60 0 0 40 0 40 63 0 c79 0 224 -30 303 -63 l61 -24 53 41
53 41 -69 32 c-89 41 -255 81 -372 89 l-93 7 3 151 3 151 50 2 c144 7 297 43
424 99 l54 24 -51 40 c-46 37 -71 47 -84 35z"/>
<path d="M150 5370 l0 -60 125 0 125 0 0 60 0 60 -125 0 -125 0 0 -60z"/>
<path d="M480 4901 c-50 -51 -85 -77 -150 -109 -47 -22 -97 -44 -112 -47 -27
-7 -27 -7 -30 57 l-3 63 -57 3 -57 3 -3 -83 -3 -83 -32 -3 -33 -3 0 -65 c0
-56 2 -64 19 -64 46 0 51 -8 51 -91 l0 -79 60 0 60 0 0 66 c0 78 -5 77 136 9
92 -45 188 -119 199 -155 8 -25 22 -25 79 0 52 22 52 28 0 101 -50 69 -194
162 -308 199 l-39 13 44 16 c140 54 270 140 312 209 40 63 40 70 3 86 -67 28
-67 28 -136 -43z"/>
<path d="M432 4633 l3 -58 58 -3 57 -3 0 61 0 60 -60 0 -61 0 3 -57z"/>
<path d="M390 4200 l0 -60 60 0 61 0 -3 58 -3 57 -57 3 -58 3 0 -61z"/>
<path d="M530 4088 l0 -173 -88 -2 c-115 -4 -211 -20 -297 -50 -75 -27 -135
-59 -135 -73 0 -5 22 -24 48 -44 l49 -35 39 19 c67 33 155 51 272 57 l112 6 0
-42 0 -41 60 0 60 0 0 275 0 275 -60 0 -60 0 0 -172z"/>
<path d="M7 3294 c-4 -4 -7 -128 -7 -276 l0 -268 60 0 60 0 0 41 0 42 113 -6
c118 -6 204 -25 274 -58 l43 -21 50 40 c46 37 48 41 32 55 -61 53 -222 97
-384 104 l-128 6 0 113 0 114 45 0 45 0 0 -100 0 -100 43 0 c115 1 255 59 328
137 73 78 74 81 26 132 l-41 44 -15 -24 c-48 -72 -120 -129 -190 -149 -30 -8
-31 -8 -31 26 0 28 4 34 20 34 19 0 21 5 18 58 l-3 57 -176 3 c-96 1 -178 -1
-182 -4z"/>
<path d="M0 2435 l0 -275 60 0 60 0 0 40 0 40 154 0 154 0 37 43 c59 69 105
143 138 225 17 42 35 79 39 80 4 2 8 30 8 63 l0 59 -250 0 -250 0 0 -60 0 -60
180 0 c99 0 180 -2 180 -4 0 -14 -44 -104 -69 -139 -62 -89 -57 -87 -196 -87
l-125 0 0 175 0 175 -60 0 -60 0 0 -275z"/>
<path d="M0 1845 l0 -275 60 0 60 0 0 112 0 111 103 -6 c125 -7 194 -21 269
-54 l58 -26 49 39 c59 44 57 49 -31 89 -98 44 -193 65 -325 72 l-123 6 0 104
0 103 -60 0 -60 0 0 -275z"/>
<path d="M7 1533 c-4 -3 -7 -127 -7 -275 l0 -268 60 0 60 0 0 40 0 40 154 0
154 0 37 41 c77 86 155 236 179 346 7 30 6 32 -31 42 -78 20 -74 22 -94 -52
-23 -83 -49 -136 -100 -204 l-40 -53 -129 0 -130 0 0 175 0 175 -53 0 c-30 0
-57 -3 -60 -7z"/>
<path d="M150 1480 l0 -60 60 0 61 0 -3 58 -3 57 -57 3 -58 3 0 -61z"/>
<path d="M0 835 l0 -115 60 0 c60 0 60 0 60 29 l0 29 83 -5 c113 -6 232 -30
296 -59 l53 -24 50 42 50 41 -39 24 c-88 54 -220 87 -390 99 -100 6 -103 7
-103 30 0 23 -4 24 -60 24 l-60 0 0 -115z"/>
<path d="M60 661 c-25 -10 -46 -25 -48 -33 -4 -21 55 -104 102 -142 47 -39
173 -108 229 -126 35 -11 51 -30 26 -30 -26 0 -198 -90 -247 -129 -51 -40
-112 -121 -112 -147 0 -6 23 -22 52 -34 42 -18 53 -20 56 -9 3 8 30 40 62 71
41 40 85 69 151 102 134 64 133 64 137 -11 l3 -63 54 0 55 0 0 80 c0 76 1 80
23 80 41 0 48 13 45 76 -3 57 -4 59 -33 64 l-30 5 -3 83 -3 82 -54 0 -55 0 0
-66 0 -66 -32 6 c-95 18 -295 150 -313 207 -8 23 -8 23 -65 0z"/>
</g>
</svg>
