<svg version="1.0" xmlns="http://www.w3.org/2000/svg"
 width="573.000000pt" height="65.000000pt" viewBox="0 0 573.000000 65.000000"
 preserveAspectRatio="xMidYMid meet">

<g transform="translate(0.000000,65.000000) scale(0.100000,-0.100000)"
fill="currentColor" stroke="none">
<path d="M720 590 c0 -60 0 -60 29 -60 l29 0 -5 -82 c-6 -114 -30 -233 -59
-297 l-24 -53 42 -50 41 -50 24 39 c54 88 87 220 99 391 6 99 7 102 30 102 23
0 24 4 24 60 l0 60 -115 0 -115 0 0 -60z"/>
<path d="M990 590 l0 -60 40 0 40 0 0 -154 0 -154 41 -37 c86 -77 236 -155
346 -179 30 -7 32 -6 42 31 20 78 22 74 -52 94 -83 23 -136 49 -204 100 l-53
40 0 129 0 130 175 0 176 0 -3 58 -3 57 -272 3 -273 2 0 -60z"/>
<path d="M1570 590 l0 -60 112 0 111 0 -6 -102 c-7 -126 -21 -195 -54 -270
l-26 -58 39 -49 c44 -59 49 -57 89 31 44 98 65 193 72 326 l6 122 104 0 103 0
0 60 0 60 -275 0 -275 0 0 -60z"/>
<path d="M2160 590 l0 -60 40 0 40 0 0 -154 0 -154 43 -37 c69 -59 143 -105
225 -138 42 -17 79 -35 80 -39 2 -4 30 -8 63 -8 l59 0 0 250 0 250 -60 0 -60
0 0 -180 c0 -99 -2 -180 -4 -180 -14 0 -104 44 -139 69 -89 62 -87 57 -87 196
l0 125 175 0 175 0 0 60 0 60 -275 0 -275 0 0 -60z"/>
<path d="M2750 590 l0 -60 41 0 42 0 -6 -112 c-6 -119 -25 -205 -58 -275 l-21
-43 40 -50 c37 -46 41 -48 55 -32 53 61 97 222 104 385 l6 127 113 0 114 0 0
-45 0 -45 -100 0 -100 0 0 -42 c1 -116 59 -256 137 -329 78 -73 81 -74 132
-26 l44 41 -24 15 c-72 48 -129 120 -149 190 -8 30 -8 31 26 31 28 0 34 -4 34
-20 0 -19 5 -21 58 -18 l57 3 0 180 0 180 -272 3 -273 2 0 -60z"/>
<path d="M4570 631 c0 -46 -8 -51 -91 -51 l-79 0 0 -60 0 -60 66 0 c78 0 77 5
9 -136 -45 -92 -119 -188 -155 -199 -25 -8 -25 -22 0 -79 22 -52 28 -52 101 0
69 50 162 194 199 308 l13 39 16 -44 c54 -140 140 -269 210 -313 61 -39 71
-37 92 17 l19 47 -68 68 c-51 50 -79 88 -110 152 -22 47 -44 97 -47 112 -7 27
-7 27 57 30 l63 3 3 57 3 57 -83 3 -83 3 -3 33 -3 32 -65 0 c-56 0 -64 -2 -64
-19z"/>
<path d="M5020 590 l0 -60 40 0 40 0 0 -62 c0 -80 -30 -225 -63 -304 l-24 -61
41 -53 41 -53 32 69 c41 89 81 255 89 372 l7 93 151 -3 151 -3 2 -50 c7 -144
43 -297 99 -424 l24 -54 41 52 c25 32 39 58 36 69 -3 9 -15 43 -26 75 -26 71
-47 169 -55 265 l-7 72 40 0 41 0 0 60 0 60 -350 0 -350 0 0 -60z"/>
<path d="M20 588 c-18 -42 -20 -53 -9 -56 8 -3 40 -30 71 -62 40 -41 69 -85
102 -151 64 -134 64 -133 -11 -137 l-63 -3 0 -54 0 -55 80 0 c76 0 80 -1 80
-22 0 -42 13 -49 76 -46 57 3 59 4 64 33 l5 30 83 3 82 3 0 54 0 55 -66 0 -66
0 6 33 c12 66 87 199 145 258 31 31 62 58 69 60 17 6 -19 103 -40 107 -21 4
-104 -55 -142 -102 -39 -47 -108 -173 -126 -228 -11 -36 -30 -52 -30 -27 0 26
-90 198 -129 247 -40 51 -121 112 -147 112 -6 0 -22 -23 -34 -52z"/>
<path d="M3746 592 l-35 -49 19 -39 c33 -67 51 -155 57 -271 l6 -113 -42 0
-41 0 0 -60 0 -60 275 0 275 0 0 60 0 60 -172 0 -173 0 -2 88 c-4 115 -20 211
-50 297 -27 75 -59 135 -73 135 -5 0 -24 -22 -44 -48z"/>
<path d="M1420 440 l0 -61 58 3 57 3 3 58 3 57 -61 0 -60 0 0 -60z"/>
<path d="M5310 375 l0 -125 60 0 60 0 0 125 0 125 -60 0 -60 0 0 -125z"/>
<path d="M4140 200 l0 -61 58 3 57 3 3 58 3 57 -61 0 -60 0 0 -60z"/>
<path d="M4577 213 c-4 -3 -7 -30 -7 -60 l0 -53 60 0 60 0 0 60 0 60 -53 0
c-30 0 -57 -3 -60 -7z"/>
</g>
</svg>
